<svg id="Layer_1" data-name="Layer 1" xmlns="http://www.w3.org/2000/svg" xmlns:xlink="http://www.w3.org/1999/xlink" viewBox="0 0 369.048 369.051"><defs><clipPath id="clip-path"><path d="M0,184.525C0,286.436,82.615,369.051,184.525,369.051s184.523-82.615,184.523-184.526S286.435,0,184.525,0,0,82.615,0,184.525" style="fill:none"/></clipPath><linearGradient id="linear-gradient" x1="-252.823" y1="676.8" x2="-251.743" y2="676.8" gradientTransform="matrix(0, 341.711, 341.711, 0, -231085.121, 86392.609)" gradientUnits="userSpaceOnUse"><stop offset="0" stop-color="#4eade2"/><stop offset="0.168" stop-color="#49a1d9"/><stop offset="0.704" stop-color="#3b81be"/><stop offset="1" stop-color="#3675b4"/></linearGradient><clipPath id="clip-path-2"><path d="M21.981,186.106A162.142,162.142,0,1,0,184.122,23.964,162.14,162.14,0,0,0,21.981,186.106" style="fill:none"/></clipPath><linearGradient id="linear-gradient-2" x1="-252.773" y1="676.828" x2="-251.693" y2="676.828" gradientTransform="matrix(0, 300.26, 300.26, 0, -203040.443, 75922.036)" gradientUnits="userSpaceOnUse"><stop offset="0" stop-color="#2961a0"/><stop offset="0.001" stop-color="#2961a0"/><stop offset="0.245" stop-color="#275995"/><stop offset="0.674" stop-color="#204578"/><stop offset="0.999" stop-color="#1a325d"/><stop offset="1" stop-color="#1a325d"/></linearGradient></defs><g style="clip-path:url(#clip-path)"><rect x="-67.541" y="-67.54" width="504.13" height="504.131" transform="translate(-67.541 116.983) rotate(-30)" style="fill:url(#linear-gradient)"/></g><g style="clip-path:url(#clip-path-2)"><rect x="-37.367" y="-35.384" width="442.979" height="442.979" transform="translate(-68.385 116.994) rotate(-30)" style="fill:url(#linear-gradient-2)"/></g><path d="M293.494,186.394a8.9,8.9,0,0,1,8.777,9.743A119.259,119.259,0,0,1,157.409,301.871a9.976,9.976,0,0,1-7.429-10.806,9.066,9.066,0,0,1,11.2-7.775,101.014,101.014,0,0,0,26.859,2.416c44.856-1.939,88.42-41.224,94.721-85.678q.384-2.721.625-5.443a8.888,8.888,0,0,1,8.858-8.2Z" style="fill:#fff"/><path d="M107.478,210.933c-9.25,0-12.142-5.925-13.875-16.041L84.93,150.524c-1.587-8.094,2.315-14.453,10.263-14.453,6.358,0,8.383,3.614,9.105,8.527l6.357,42.634h.291l12.863-35.841c4.191-11.706,7.515-15.32,15.318-15.32h.722c7.371.435,10.7,3.9,12.429,15.176l5.637,35.985h.145L172.8,144.6c1.59-4.479,4.045-8.527,10.115-8.527,8.527,0,11.708,6.359,8.383,14.453l-17.921,44.368c-4.191,9.393-8.38,15.9-17.053,16.041h-.433c-9.394,0-12-5.925-13.732-16.041L137.1,161.363h-.288l-12,33.529c-3.613,8.815-7.8,16.041-16.908,16.041Z" style="fill:#fff"/><path d="M262.417,110.636a8.979,8.979,0,0,1-8.96,9.25c-4.916,0-5.348-2.458-9.831-2.458s-7.659,3.614-8.237,9.538l-1.012,10.116h8.817c5.058,0,9.249,2.6,8.528,8.962-.578,6.359-5.348,9.1-10.407,9.1H232.5l-7.8,74.573c-.578,5.782-4.336,11.129-11.562,11.129-7.082,0-9.682-5.347-9.1-11.129l7.8-74.573h-2.6c-5.06,0-9.25-2.745-8.673-9.1.725-6.359,5.492-8.962,10.551-8.962h2.6l1.157-10.982c1.591-14.452,10.116-27.6,29.771-27.6,5.925,0,11.273,1.3,14.6,4.334a10.218,10.218,0,0,1,3.18,7.8" style="fill:#fff"/></svg>